<svg width="360" height="362" viewBox="0 0 360 362" fill="none" xmlns="http://www.w3.org/2000/svg">
<path d="M509.289 244.212C391.582 268.253 418.764 93.6355 249.626 143.647C-3.52682 218.499 -48.8215 -49.5877 43.9789 -112.353C136.779 -175.119 416.758 -69.1015 509.463 1.93755C602.167 72.9766 717.777 201.63 509.289 244.212Z" fill="#FFCC29"/>
<path d="M508.956 243.416C494.417 246.386 482.194 246.274 471.587 243.951C460.973 241.627 451.882 237.068 443.654 231.034C430.64 221.49 419.928 208.379 408.829 194.794C405.839 191.134 402.82 187.439 399.721 183.771C385.188 166.568 368.911 149.996 345.53 140.916C322.062 131.802 291.672 130.314 249.173 142.881C186.126 161.522 136.209 158.766 98.1926 143.333C60.1323 127.881 33.7811 99.635 18.1537 66.9975C2.52944 34.3666 -2.3294 -2.56583 2.50227 -35.2442C7.3385 -67.9532 21.8577 -96.2464 44.7727 -111.745C67.6424 -127.213 102.158 -132.354 142.76 -130.14C183.342 -127.926 229.811 -118.371 276.34 -104.62C369.414 -77.1137 462.428 -32.9098 508.634 2.49779C554.96 37.9972 606.847 87.7797 621.204 133.912C628.373 156.948 626.163 179.001 609.339 197.927C592.505 216.863 560.922 232.803 508.956 243.416Z" stroke="white" stroke-opacity="0.6" stroke-width="2"/>
<path d="M720.586 170.274C765.754 231.333 451.066 402.298 411.502 219.03C384.783 95.2645 165.806 132.806 134.394 31.7932C107.032 -56.1929 262.197 13.9047 368.002 -10.6757C473.807 -35.2561 675.418 109.216 720.586 170.274Z" fill="url(#paint0_linear_88_161)"/>
<path d="M719.612 170.5C725.009 177.796 725.128 186.889 720.797 196.983C716.478 207.049 707.797 217.958 695.947 228.802C672.249 250.488 636.001 271.805 597.116 285.502C558.177 299.218 516.841 305.206 482.933 296.532C466.042 292.211 450.966 284.246 438.868 271.713C426.745 259.153 417.555 241.947 412.629 219.127C405.9 187.96 387.025 166.85 361.94 151.195C336.941 135.593 305.864 125.468 274.874 116.117C271.245 115.022 267.618 113.938 264.002 112.856C236.637 104.676 209.885 96.6787 187.633 85.6077C162.551 73.1285 143.263 56.7775 135.505 31.8303C128.714 9.99127 133.314 -1.78469 145.277 -7.77511C157.353 -13.8226 177.161 -14.114 201.462 -12.387C212.055 -11.6343 223.44 -10.5041 235.345 -9.32235C237.065 -9.15168 238.795 -8.97994 240.535 -8.80811C254.313 -7.44751 268.704 -6.08272 283.235 -5.21065C312.295 -3.4667 341.981 -3.68845 368.596 -9.87176C394.731 -15.9434 426.861 -11.5942 461.183 -0.604907C495.503 10.3837 531.912 27.9804 566.481 48.2792C601.043 68.5741 633.721 91.5433 660.571 113.245C687.436 134.958 708.407 155.354 719.612 170.5Z" stroke="white" stroke-opacity="0.6" stroke-width="2"/>
<defs>
<linearGradient id="paint0_linear_88_161" x1="593.629" y1="280.575" x2="448.01" y2="-49.6781" gradientUnits="userSpaceOnUse">
<stop stop-color="#9C9C9C"/>
<stop offset="1" stop-color="#F5AF19"/>
</linearGradient>
</defs>
</svg>
